<svg width="24" height="24" viewBox="0 0 24 24" fill="none" xmlns="http://www.w3.org/2000/svg">
<path fill-rule="evenodd" clip-rule="evenodd" d="M9.89565 1C8.47702 1.00012 7.07899 1.33949 5.8182 1.9898C4.5574 2.64011 3.4704 3.5825 2.64789 4.73835C1.82538 5.8942 1.29121 7.22998 1.08993 8.63426C0.888664 10.0385 1.02613 11.4706 1.49087 12.8109C1.95561 14.1513 2.73415 15.361 3.76152 16.3393C4.7889 17.3176 6.03532 18.036 7.3968 18.4346C8.75829 18.8331 10.1953 18.9004 11.5881 18.6306C12.9808 18.3609 14.2889 17.7619 15.4031 16.8839L19.2254 20.7062C19.4228 20.8968 19.6872 21.0023 19.9616 21C20.2361 20.9976 20.4986 20.8875 20.6926 20.6934C20.8867 20.4994 20.9968 20.2369 20.9991 19.9625C21.0015 19.688 20.896 19.4236 20.7054 19.2262L16.883 15.4039C17.9171 14.0921 18.561 12.5156 18.7409 10.8549C18.9209 9.19422 18.6297 7.51642 17.9006 6.01352C17.1715 4.51061 16.0341 3.24333 14.6184 2.35669C13.2027 1.47005 11.5661 0.999888 9.89565 1ZM3.09247 9.89647C3.09247 8.09215 3.80923 6.36173 5.08507 5.08589C6.36092 3.81005 8.09133 3.09329 9.89565 3.09329C11.7 3.09329 13.4304 3.81005 14.7062 5.08589C15.9821 6.36173 16.6988 8.09215 16.6988 9.89647C16.6988 11.7008 15.9821 13.4312 14.7062 14.707C13.4304 15.9829 11.7 16.6996 9.89565 16.6996C8.09133 16.6996 6.36092 15.9829 5.08507 14.707C3.80923 13.4312 3.09247 11.7008 3.09247 9.89647Z" fill="#416EDF"/>
</svg>
